<svg width="512" height="512" viewBox="0 0 512 512" fill="none" xmlns="http://www.w3.org/2000/svg">
<path d="M241.574 210.211L158.621 298.039L234.113 256.617L273.559 298.039L356.047 210.211L281.391 250.906L241.574 210.211Z" fill="#3333FF"/>
<path d="M256 0C114.637 0 0 114.637 0 256C0 397.363 114.637 512 256 512C397.363 512 512 397.363 512 256C512 114.637 397.363 0 256 0ZM258 393.035C242.152 393.035 226.855 390.797 212.465 386.652L160.84 416V360.789C126.262 334.477 104.18 294.402 104.18 249.52C104.18 170.254 173.047 106 258 106C342.957 106 411.82 170.254 411.82 249.52C411.82 328.777 342.957 393.035 258 393.035V393.035Z" fill="#3333FF"/>
</svg>
