<svg width="512" height="512" viewBox="0 0 512 512" fill="none" xmlns="http://www.w3.org/2000/svg">
<path d="M309.605 343.348C298.137 354.816 273.562 358.91 256.051 358.91C238.488 358.91 213.965 354.816 202.496 343.348C199.781 340.633 195.43 340.633 192.719 343.348C190.004 346.063 190.004 350.414 192.719 353.125C210.895 371.301 245.812 372.734 256.051 372.734C266.289 372.734 301.156 371.301 319.387 353.125C322.047 350.41 322.047 346.059 319.387 343.348C316.672 340.633 312.32 340.633 309.605 343.348V343.348Z" fill="#3333FF"/>
<path d="M224 282.676C224 267.98 212.02 256 197.324 256C182.633 256 170.648 267.98 170.648 282.676C170.648 297.367 182.633 309.352 197.324 309.352C212.02 309.352 224 297.371 224 282.676V282.676Z" fill="#3333FF"/>
<path d="M256 0C114.637 0 0 114.637 0 256C0 397.363 114.637 512 256 512C397.363 512 512 397.363 512 256C512 114.637 397.363 0 256 0ZM404.531 290.148C405.094 293.836 405.402 297.574 405.402 301.363C405.402 358.809 338.535 405.352 256.051 405.352C173.566 405.352 106.699 358.809 106.699 301.363C106.699 297.523 107.008 293.734 107.57 290.047C94.5664 284.211 85.5039 271.156 85.5039 256C85.5039 235.418 102.195 218.676 122.828 218.676C132.863 218.676 141.926 222.617 148.633 229.07C174.539 210.383 210.383 198.449 250.266 197.426C250.266 196.914 268.902 108.133 268.902 108.133C269.262 106.395 270.285 104.906 271.77 103.938C273.254 102.965 275.047 102.656 276.789 103.016L338.844 116.223C343.195 107.418 352.152 101.324 362.648 101.324C377.395 101.324 389.324 113.254 389.324 128C389.324 142.746 377.395 154.676 362.648 154.676C348.363 154.676 336.793 143.41 336.129 129.281L280.574 117.453L263.578 197.48C302.746 198.859 337.922 210.738 363.418 229.172C370.125 222.672 379.238 218.676 389.324 218.676C409.961 218.676 426.648 235.367 426.648 256C426.648 271.258 417.484 284.312 404.531 290.148V290.148Z" fill="#3333FF"/>
<path d="M314.676 256C299.98 256 288 267.98 288 282.676C288 297.367 299.98 309.352 314.676 309.352C329.367 309.352 341.352 297.367 341.352 282.676C341.352 267.98 329.371 256 314.676 256V256Z" fill="#3333FF"/>
</svg>
