<svg width="512" height="512" viewBox="0 0 512 512" fill="none" xmlns="http://www.w3.org/2000/svg">
<path d="M256 0C114.613 0 0 114.598 0 256C0 397.417 114.613 512 256 512C397.387 512 512 397.417 512 256C512 114.598 397.387 0 256 0ZM390.054 210.176C390.174 212.751 390.234 215.341 390.234 217.961C390.234 297.562 329.653 389.376 218.82 389.376C184.787 389.376 153.133 379.407 126.464 362.315C131.192 362.872 135.981 363.144 140.845 363.144C169.08 363.144 195.042 353.521 215.657 337.378C189.304 336.881 167.048 319.473 159.398 295.56C163.072 296.252 166.837 296.614 170.722 296.614C176.218 296.614 181.549 295.876 186.579 294.49C159.051 288.964 138.27 264.584 138.27 235.384C138.27 235.144 138.27 234.918 138.27 234.647C146.417 239.164 155.693 241.86 165.572 242.176C149.414 231.379 138.782 212.947 138.782 192.015C138.782 181.007 141.749 170.632 146.944 161.732C176.64 198.189 221.048 222.178 271.119 224.678C270.095 220.265 269.553 215.672 269.553 210.959C269.553 177.694 296.523 150.724 329.788 150.724C347.076 150.724 362.752 158.027 373.76 169.743C387.464 167.032 400.384 162.018 412.024 155.151C407.522 169.216 397.944 181.007 385.551 188.446C397.734 187 409.344 183.763 420.141 178.974C412.024 191.066 401.83 201.698 390.054 210.176Z" fill="#3333FF"/>
</svg>
