<svg width="512" height="512" viewBox="0 0 512 512" fill="none" xmlns="http://www.w3.org/2000/svg">
<path fill-rule="evenodd" clip-rule="evenodd" d="M256 512C397.385 512 512 397.385 512 256C512 114.615 397.385 0 256 0C114.615 0 0 114.615 0 256C0 397.385 114.615 512 256 512ZM140 110L236.505 292.86V413H273.622V295.068L371 110H329.953L272.312 225.723C269.401 231.907 266.562 237.869 263.797 243.611C262.07 247.197 260.428 250.64 258.871 253.938C257.935 255.922 257.029 257.854 256.155 259.733C255.5 257.965 254.762 256.072 253.942 254.055C253.669 253.385 253.388 252.701 253.098 252.004C251.934 249.206 250.624 246.335 249.168 243.391C248.877 242.802 248.586 242.14 248.295 241.403C248.004 240.667 247.567 239.857 246.985 238.974C246.378 237.337 245.701 235.735 244.954 234.17C244.625 233.482 244.284 232.802 243.928 232.128C243.37 231.069 242.845 230.027 242.354 229.002C241.82 227.889 241.326 226.796 240.872 225.723L184.104 110H140Z" fill="#3333FF"/>
</svg>
